<svg width="161" height="57" viewBox="0 0 161 57" fill="none" xmlns="http://www.w3.org/2000/svg">
<path fill-rule="evenodd" clip-rule="evenodd" d="M0 0.809545V46.2898H12.6627V28.1398H15.0993C20.3057 28.1398 22.3444 32.2523 23.7658 36.7776C24.7811 40.0158 25.5933 43.254 27.2178 46.2898H41.2937C38.7921 41.3597 36.9646 35.8952 35.137 30.698C33.3745 25.6383 30.4667 21.8577 24.9842 20.3763L42.041 0.809545H26.0644L13.1987 18.8219H12.6627V0.809545H0ZM115.109 11.2041H118.521V0.809545H152.017V11.2041H141.027V46.2898H128.227V14.7661L120.153 11.8032V15.6809H115.109V46.2898H102.341V11.0665H93.0409C93.0409 26.035 94.3161 41.0844 77.6085 45.6745L73.4661 34.6C76.1644 33.0841 78.1935 30.614 79.1517 27.6783C79.3621 26.9773 79.5116 26.2596 79.5985 25.5331C80.8899 16.8223 80.1508 10.5241 80.4107 0.809545H115.134V11.2041H115.109ZM71.4112 46.8241C67.7469 47.2084 64.0555 47.2653 60.3811 46.9941C44.1365 45.8445 36.8265 35.79 36.8265 24.3268C36.794 8.50022 49.2455 0 64.2067 0C66.0723 0.00108267 67.935 0.144521 69.7786 0.429059L72.9707 11.7627C70.3162 10.7867 67.5149 10.2666 64.6859 10.2246C57.0347 10.2246 50.2608 14.337 50.2608 23.3797C50.2608 33.3614 59.4633 37.7491 67.5856 36.5752L71.4112 46.8241Z" fill="#ECECEC" fill-opacity="0.63"/>
<path fill-rule="evenodd" clip-rule="evenodd" d="M116.805 11.09C115.652 11.7134 115.335 11.3491 113.865 10.4909L113.102 8.9609C111.347 8.6047 110.665 9.95664 109.292 10.6367C106.571 11.9886 106.295 12.7577 104.208 14.1015C104.045 14.2068 103.842 14.2149 103.396 14.4334L101.99 15.243C101.334 15.5871 100.643 15.8586 99.9274 16.0525C98.9527 16.3359 98.6116 16.2063 97.1577 16.684C96.2732 16.9662 95.4211 17.3407 94.6154 17.8011L92.7716 18.8697C91.8051 19.5012 88.41 21.1931 88.0851 21.5412C87.6051 21.9361 87.0537 22.2356 86.4606 22.4236C86.2251 22.6017 86.4606 22.5127 86.2576 22.6665C86.1971 22.7268 86.1156 22.7616 86.0301 22.7636L85.3397 22.9175C84.9282 23.0102 84.5317 23.1601 84.162 23.3627C83.9904 23.4479 83.8318 23.557 83.6909 23.6865C83.5041 23.8889 83.4472 23.9132 83.1061 23.8565C81.4816 23.5813 79.7678 23.2737 78.2327 22.9094C77.4782 22.659 76.7662 22.2959 76.1209 21.8327C74.7428 20.8958 73.5089 19.7641 72.4578 18.4731C71.7989 17.6016 70.9701 16.8719 70.0211 16.3278L69.8587 16.2387C68.4856 15.4783 66.9457 15.0668 65.3751 15.0406C59.3809 14.7896 57.5371 21.9379 62.4268 25.1761C62.897 25.4149 63.386 25.6153 63.8888 25.7752C65.6919 26.1475 66.7803 26.4714 68.6728 26.0504C69.8018 25.7913 70.6952 25.2409 71.8242 24.9818C71.9482 24.9656 72.0705 24.9385 72.1897 24.9008L73.27 24.5527C73.7495 24.4317 74.2347 24.3344 74.7239 24.2613C75.8538 24.0814 77.0072 24.1088 78.1271 24.3423C78.3871 24.3989 78.2652 24.3423 78.5414 24.3423C79.4105 24.4637 80.5151 24.9575 81.4735 25.1032C81.5791 25.5161 81.4004 25.7266 81.9121 26.018C82.1396 26.1556 82.367 26.018 82.6025 25.8399L82.7162 25.7671C82.8381 25.7023 82.7162 25.7671 82.8381 25.7185C82.9924 26.3904 82.4807 26.6738 83.4066 26.8438L83.6503 26.6171C83.8777 26.7061 83.9102 26.8761 84.1945 26.8519C84.2991 26.8284 84.4021 26.7986 84.5031 26.7628C84.9093 26.6738 84.7062 27.1838 85.6159 26.6252L85.7296 26.5604C86.3184 26.3364 86.8467 25.9788 87.2728 25.5161C87.7556 24.8076 88.5003 24.3186 89.344 24.1561C90.2618 24.0184 91.0984 23.3465 91.9838 23.0389C92.3574 22.9094 92.796 22.7636 93.1534 22.6827C93.9656 22.4803 94.7778 22.3184 95.5901 22.0755C96.4023 21.8327 97.0521 21.4279 97.8075 21.1769L101.649 19.5578C102.247 19.4272 102.82 19.2031 103.347 18.894C104.573 18.2869 106.133 17.194 107.278 16.8621C107.928 16.5961 108.596 16.3743 109.276 16.1982C109.495 16.1578 109.69 16.0687 109.893 16.012C110.259 15.9068 110.519 16.1254 110.844 16.3035C111.559 16.6759 112.265 16.9106 112.988 17.2425C113.248 17.364 113.305 17.4773 113.54 17.5907C115.392 18.4893 120.095 24.3585 120.972 25.8723C121.135 26.1395 121.257 26.1395 121.476 26.3418C121.362 27.1514 111.55 31.9601 110.746 32.3487C110.137 32.6158 109.772 32.9639 109.122 33.2473C108.433 33.7569 107.933 34.4801 107.7 35.3035C107.14 37.384 106.718 37.2059 106.441 37.8941C106.385 37.9912 100.991 46.0786 100.756 46.2405C100.52 46.4024 100.407 46.6614 100.22 46.8557L100 47.0662C97.9293 48.9929 98.4816 48.1753 97.7993 47.9729L97.0602 48.4667C95.8013 46.0381 96.5891 48.8958 96.581 48.912C96.3942 49.3734 95.4439 48.912 95.1352 48.831C94.6763 48.6893 94.2328 48.5021 93.8113 48.2724C93.6082 48.2077 93.6488 48.2724 93.462 48.151C93.2752 48.0296 93.2915 48.0296 93.1534 47.9567C92.4905 47.603 91.9309 47.0843 91.5289 46.4509C91.4396 46.1757 91.5289 46.119 90.8142 46.1433C90.4243 46.1433 90.603 46.2243 90.4405 46.2971C90.0507 46.4671 89.9613 45.8762 89.7014 47.3657C89.6939 47.7242 89.7719 48.0793 89.9288 48.4019C90.4423 49.6889 91.0504 50.9363 91.7482 52.1339C91.9025 52.3768 92.0569 52.5792 92.2193 52.814C92.2849 52.9242 92.3582 53.0297 92.4386 53.1297C93.0884 53.9392 93.6164 54.8945 94.2174 55.7769L94.2905 55.8902C94.5179 56.2221 94.721 56.6998 95.184 56.8374C95.3302 56.6998 95.2571 56.7322 95.4357 56.6026L95.5901 56.5217C95.7038 56.5217 95.5901 56.5217 95.7931 56.5217C95.8419 56.1898 95.9231 56.0926 96.1668 55.9955L96.7353 55.7607C96.8218 55.7047 96.9113 55.6533 97.0034 55.6069C97.2523 55.3994 97.4783 55.166 97.6775 54.9107L98.3435 54.2631C98.8146 53.7449 99.2776 53.7207 98.8471 52.9597C99.0098 52.666 99.209 52.394 99.44 52.1501C99.9436 51.5754 99.7162 51.9235 99.9436 51.1139C100.186 51.0513 100.408 50.9256 100.585 50.7496L101.398 50.0372L101.584 49.851C103.282 48.4667 105.012 47.0824 106.726 45.7062C107.643 44.8717 108.461 43.9345 109.162 42.9132C110.12 41.6894 110.879 40.3236 111.412 38.8655C111.599 38.3069 111.656 38.3636 112.095 38.1207C112.676 37.7494 113.304 37.4555 113.963 37.2464C114.15 37.1897 114.296 37.125 114.483 37.0764C117.447 36.0564 123.206 35.0768 124.977 34.2997C125.423 34.0215 125.887 33.7727 126.365 33.5549C126.674 33.3606 126.91 33.1582 127.178 32.9882C127.409 33.2299 127.606 33.5023 127.762 33.7978C128.372 34.6073 128.956 35.3278 129.541 36.1778C129.687 36.3883 129.988 36.5097 130.297 36.8578L131.669 38.3069C132.44 39.1642 133.118 40.1004 133.692 41.0998L134.585 42.3142C135.665 43.4232 136.624 42.9375 137.956 43.2047C138.145 43.2523 138.343 43.2523 138.533 43.2047C139.288 43.2047 142.366 44.079 143.219 44.1923C143.442 44.2299 143.662 44.284 143.877 44.3542C146.444 45.0342 148.856 45.2933 151.309 46.4024L152.341 46.9529C152.676 47.1389 152.999 47.3472 153.307 47.5762C153.169 47.9243 153.096 47.641 152.966 48.0215C152.889 48.2333 152.889 48.4653 152.966 48.6772C153.153 49.0091 153.827 48.9767 154.249 49.0982C154.615 49.9806 154.249 49.8591 155.354 50.4663C155.493 50.5314 155.616 50.6238 155.718 50.7379C155.82 50.8519 155.898 50.9854 155.947 51.1301C156.166 51.8425 156.442 51.6563 156.54 51.9397C156.605 52.142 156.54 52.1178 156.588 52.2797C156.636 52.4469 156.71 52.6054 156.808 52.7492C156.51 53.4479 156.048 54.0645 155.459 54.5464C155.509 55.014 155.596 55.477 155.719 55.9307C156.199 56.3517 157.742 56.1979 158.156 56.0845C158.307 56.0613 158.451 56.0049 158.577 55.9195C158.704 55.8341 158.81 55.7218 158.887 55.5907C159.17 55.0494 159.357 54.4632 159.439 53.8583C159.439 53.4535 159.439 53.7449 159.553 53.3564C159.667 52.9678 159.504 53.0487 159.553 52.733C159.829 51.6806 159.878 51.3082 160.081 50.1829L160.357 48.1591C160.644 46.8224 160.858 45.4711 160.999 44.1114C160.893 43.8928 160.877 43.9252 160.544 43.8442C159.228 43.5528 160.447 44.1842 158.822 43.6175C158.429 43.4835 158.005 43.4694 157.604 43.5771H157.555C157.291 43.6893 157.02 43.7839 156.743 43.8604C156.67 43.6823 156.743 43.7875 156.597 43.6337C156.19 43.6337 156.052 43.5609 155.744 43.7471L155.459 43.8604C155.243 43.9192 155.013 43.8991 154.81 43.8037C153.697 43.4232 152.974 43.0509 151.918 42.5813C151.65 42.4599 151.65 42.387 151.415 42.2737C150.919 42.0586 150.436 41.8153 149.969 41.5451C149.725 41.3184 149.49 41.3184 149.246 41.116C148.993 40.9499 148.72 40.8166 148.434 40.7194C148.076 40.5575 147.914 40.4036 147.621 40.2741C147.329 40.1446 147.191 39.9584 146.89 39.7965C146.38 39.4691 145.835 39.1976 145.266 38.9869L143.284 38.4122C141.993 38.1126 139.913 38.4122 139.385 38.0155C138.858 37.6188 138.955 37.4812 138.679 37.0845C136.981 34.2511 130.077 18.5621 130.995 18.044C131.231 17.9145 132.327 18.6026 132.522 18.6593C133.481 18.8293 136.023 19.0155 136.583 19.3797C136.892 19.5659 136.819 19.6145 137.022 19.8574C137.512 20.5305 138.056 21.1639 138.646 21.7517L138.744 21.8408L139.556 22.6503C141.319 24.0265 142.05 25.1842 143.463 26.698C144.86 28.0014 144.405 28.6571 145.274 30.0172C145.386 30.2067 145.484 30.4042 145.567 30.6081C145.656 30.8186 145.908 31.531 145.973 31.7415C146.078 32.0896 145.924 32.1463 146.046 32.4782C146.631 32.5349 146.566 30.9724 146.517 30.6162C147.085 30.851 147.329 31.4663 147.743 31.8953C148.152 32.3514 148.65 32.7203 149.205 32.9801L149.335 32.802C149.392 32.7211 149.213 32.6239 149.124 32.5025V32.462L148.97 32.2596C148.828 32.0395 148.662 31.8359 148.474 31.6525L148.361 31.531C148.128 31.2236 147.93 30.8926 147.768 30.5434C147.719 30.4219 147.873 30.341 147.873 30.3329C148.393 30.6162 148.807 31.1424 149.311 31.4258C150.188 31.9115 150.765 32.5753 150.935 31.7253L150.342 31.2639C149.652 30.8348 149.132 30.2681 148.442 29.9281C148.489 29.7772 148.569 29.6388 148.677 29.5234C149.311 29.831 150.513 30.7458 151.171 30.7701L151.333 30.3248C150.414 29.8931 149.543 29.3667 148.734 28.7543C148.832 28.5843 148.88 28.3738 149.059 28.309C149.473 28.2605 150.757 28.8352 151.049 28.7462L151.114 28.2928C150.115 28.1114 149.15 27.7755 148.255 27.2971C147.735 26.8842 147.686 26.4876 146.631 26.0504C146.209 25.8726 145.822 25.6233 145.485 25.3137C144.673 24.5042 141.782 20.2864 141.075 19.4607C141.01 19.3717 139.735 17.793 139.524 17.6068C139.142 17.2012 138.738 16.8174 138.313 16.4573C134.991 14.231 132.027 13.4296 129.07 10.9605C128.688 10.6367 128.445 10.2886 128.087 9.97283C127.546 9.58034 126.953 9.26432 126.325 9.03376C126.154 8.91233 125.342 8.76661 125.22 8.69375C124.725 8.41041 121.2 8.22422 120.582 8.19183C120.672 7.64944 121.183 7.47134 121.305 7.07466C121.63 6.01416 121.833 4.81603 121.858 4.72698C122.117 3.91743 121.167 2.42787 120.631 1.89357C119.283 0.574012 116.838 1.25403 115.53 2.28215C115.267 2.56046 115.048 2.87712 114.881 3.22123C114.464 3.71586 114.157 4.29236 113.979 4.91317C113.743 5.82448 113.65 6.76652 113.703 7.70611C113.971 8.35374 113.995 9.09043 114.271 9.73806C115.603 10.6933 115.084 10.9686 116.862 10.6529C117.106 10.7419 117.277 10.6529 117.52 10.7419C117.244 10.7824 117.082 11.0333 116.805 11.0738V11.09ZM73.27 23.9213C73.4 23.3222 74.1391 21.5979 73.9117 21.1607C74.2695 21.3457 74.6047 21.5712 74.9107 21.8327C75.5651 22.2488 76.1943 22.7029 76.7951 23.1927C76.5595 23.5327 76.2996 23.3708 75.8854 23.4032C73.4081 23.6056 74.7239 23.7108 73.27 23.9213Z" fill="#8CD15C" fill-opacity="0.29"/>
</svg>
